<?xml version="1.0" encoding="UTF-8" standalone="no"?><!DOCTYPE svg PUBLIC "-//W3C//DTD SVG 1.1//EN" "http://www.w3.org/Graphics/SVG/1.1/DTD/svg11.dtd"><svg width="6502px" height="1271px" version="1.1" xmlns="http://www.w3.org/2000/svg" xmlns:xlink="http://www.w3.org/1999/xlink" xml:space="preserve" xmlns:serif="http://www.serif.com/" style="fill-rule:evenodd;clip-rule:evenodd;stroke-linecap:round;stroke-linejoin:round;stroke-miterlimit:1.5;"><g transform="matrix(1,0,0,1,-2575.02,-6294.82)"><g id="Artboard3" transform="matrix(1.32322,0,0,1.04406,4300.08,4139.78)"><rect x="-1303.68" y="2064.09" width="4913.7" height="1216.56" style="fill:none;"/><g transform="matrix(1.29178,0,0,2.04524,-876.909,-3081.08)"><g transform="matrix(0.0115241,0,0,0.00922477,-283.766,2551.19)"><g transform="matrix(74.5535,0,0,74.5535,-3355.45,-11910.7)"><path d="M1596.68,851.31C1575.84,875.28 1544.49,890.69 1512.89,893.67L139.78,893.6C50.46,883.94 -1.42,783.78 44.81,705.55L309.6,246.96C330.8,212.03 367.78,191.13 408.27,187.48L1775.57,187.55C1865.55,197.86 1917.16,288.17 1876.37,370.96L1610.85,831.17C1606.17,837.89 1602.06,845.12 1596.67,851.31L1596.68,851.31ZM406.32,236.71C387.61,239.24 370.97,248.07 358.32,261.97C264.05,419.97 173,580.31 81.65,740.1C62.86,795.29 97.06,843.87 154.82,844.71C603.45,851.22 1052.59,840.01 1501.27,844.71C1525.86,847.16 1551.57,832.32 1565.54,812.57L1833.35,348.83C1858.11,298.95 1827.9,243.03 1773.26,236.4L406.33,236.7L406.32,236.71Z" style="fill:rgb(241,104,35);fill-rule:nonzero;"/></g><g transform="matrix(74.5535,0,0,74.5535,-3355.45,-11910.7)"><path d="M414.49,244.88L1764.02,244.48C1809.82,245.77 1843.34,286.66 1830.49,332.02C1741.02,493.6 1647.11,653.15 1554.09,812.76C1541.44,827.05 1523.86,835.36 1504.75,836.68L150.17,836.68C101.56,833.35 71.5,785.36 91.28,740.44L358.88,276.49C370.92,257.38 392.09,246.25 414.49,244.88ZM409.79,269.26C397.7,271.26 387.48,277.5 380.05,287.2L112.22,752.08C99.93,783.27 122.61,812.55 154.82,813.41L1498.94,813.41C1513.24,812.52 1525.72,808.53 1535.53,797.68L1806.16,329.78C1817.39,300.92 1798.23,270.78 1767.5,268.91L409.78,269.25L409.79,269.26Z" style="fill:rgb(193,157,101);fill-rule:nonzero;"/></g><g transform="matrix(17.3611,0,0,17.3611,-1316.88,2056.06)"><path d="M3885.24,1729.12L4604.35,612.844C4635.02,575.613 4695.95,533.529 4742.89,521.677C4800.56,507.119 5025.24,509.137 5090.42,515.922C5186.49,525.928 5251.97,613.145 5252.92,706.803L4936.34,2358.64C4891.6,2534.45 4744.13,2545.87 4586.62,2533.59C4462.64,2523.93 4394.79,2426.83 4411.03,2307.58C4447.23,2041.59 4534.36,1765.21 4567.04,1499.48C4567.9,1492.44 4574.25,1487.98 4561.88,1489.35L3957.76,2443.54C3841.05,2570.13 3608.64,2572.07 3521.47,2410.39L3266.77,1456.33L3256.29,1449.41C3202.49,1715.36 3159.41,1983.88 3105.01,2249.7C3076.88,2387.03 3055.32,2519.98 2884.24,2533.33C2746.22,2544.11 2618.34,2522.72 2592.87,2365.47C2684.12,1802.06 2805.87,1241.44 2908.16,679.019C2927.78,593.949 3006.97,523.18 3094.1,515.364C3157.4,509.696 3397.92,507.291 3449.62,524.167C3495.06,538.982 3552.26,586.434 3574.93,628.561C3684.26,988.894 3773.37,1356.49 3871.49,1720.55L3885.24,1729.12ZM1947.4,2019.61L1333.92,2021.41L1101.34,2423.1C980.024,2608.48 528.266,2573.36 659.07,2280.36L1645.94,610.182C1732.64,497.972 1901.28,504.972 2030.62,515.149C2105.08,521.032 2171.3,569.944 2205.1,635.303C2337.45,1202.15 2448.24,1775.86 2567.32,2346.4C2551.82,2539 2384.73,2544.88 2229.96,2533.63C2140.98,2527.15 2067.47,2472.48 2034.06,2389.95L1947.4,2019.56L1947.4,2019.61ZM1868.21,1589.36L1798.26,1244.7L1593.63,1589.36L1868.21,1589.36ZM5611.66,516.781C5965.55,525.971 6336.54,479.507 6681.24,572.736C7222.88,719.299 7162.33,1382.42 6750.64,1651.33C6613.65,1740.82 6381.37,1790.98 6218.7,1808.46C6067.67,1824.69 5909.39,1806.14 5757.24,1816.32L5646.23,2374.62C5597.19,2535.99 5444.96,2544.58 5300.5,2533.63C5185.84,2524.91 5108.89,2431.86 5124.05,2316.73L5440.36,670.044C5462.48,596.44 5534.11,526.529 5611.62,516.695L5611.66,516.781ZM5837.41,1374.52C6007.81,1372.55 6177.56,1387.7 6342.72,1338.15C6431.91,1311.39 6505.95,1260.29 6529.05,1164.92C6572.21,986.532 6435.22,966.95 6294.45,959.736C6171.12,953.423 6041.86,964.288 5917.97,960.595L5837.41,1374.52Z" style="fill:rgb(188,152,98);"/></g><g transform="matrix(74.5535,0,0,74.5535,-3355.45,-11910.7)"><path d="M922.81,634.22C924.66,636.02 924.83,633.52 925.39,632.71C987.99,541.43 1043.29,442.78 1106.47,352.11C1114.35,340.81 1119.38,332.79 1133.25,327.72C1145.8,323.14 1192.3,323.44 1207.04,324.82C1220.6,326.09 1229.77,334.02 1231.94,347.62C1208.33,479.04 1183.55,610.91 1156.28,741.61C1152.04,748.37 1145.98,754.78 1138.2,757.26C1130.42,759.74 1095.19,759.78 1087.58,757.26C1078.18,754.15 1072.62,744.29 1071.52,734.84L1126.25,444.61C1124.02,445.46 1122.86,447.96 1121.58,449.82C1056.57,544.42 1000.84,648.36 936.07,743.47C918.08,765.07 873.27,766.55 862.3,737.22L783.3,441.13L725.73,738.91C722.41,747.42 712.54,756.88 703.37,758.42C696.66,759.55 675.73,759.53 668.87,758.59C655.42,756.75 646.97,740.78 649.72,728.01L722.01,350.15C725.17,337.03 736.8,326.49 750.28,324.92C765.69,323.13 799.58,323.4 815.31,324.75C834.68,326.42 845.89,339.94 849.24,358.28L922.83,634.22L922.81,634.22ZM1126.84,442.29L1126.84,443.45C1127.59,443.06 1127.59,442.67 1126.84,442.29Z" style="fill:rgb(53,29,19);fill-rule:nonzero;"/></g><g transform="matrix(74.5535,0,0,74.5535,-3355.45,-11910.7)"><path d="M324.44,645.1C304.67,674.42 289.94,710.31 270.35,739.3C264.2,748.4 253.23,757.12 241.97,758.6C235.22,759.49 213.05,759.52 206.82,757.9C195.72,755.02 191.5,742.26 194.36,731.91L421.88,344.19C437.33,321.14 471.73,322.56 496.66,324.83C511.29,326.16 523.36,335.76 527.15,350.16L606.25,728.17C609,741.62 600.42,757.18 586.21,758.7C576.27,759.77 543.41,759.79 535.18,756.24C527.05,752.73 520.15,743.97 517.35,735.69C508.18,708.56 505.61,674.36 497.24,646.46L491.79,640.28L330.34,641.12L324.43,645.1L324.44,645.1ZM484.48,576.06L453.1,427.17L367.05,576.06L484.48,576.06Z" style="fill:rgb(53,29,19);fill-rule:nonzero;"/></g><g transform="matrix(74.5535,0,0,74.5535,-3355.45,-11910.7)"><path d="M1338.74,325.1C1419.55,326.91 1504.46,316.84 1582.9,339.61C1671.39,365.3 1675.24,468.73 1620.41,530.14C1576.63,579.17 1509.82,586.45 1447.77,592.39C1419.94,595.01 1385.12,588.74 1358.14,592.28C1354.1,592.81 1352.22,595.29 1350.95,599.04C1340.88,642.07 1336.43,688.32 1325.88,731C1322.85,743.26 1315.2,755.4 1301.88,758.17C1294.73,759.65 1264.69,759.66 1257.33,758.41C1246.27,756.53 1238.8,745.23 1237.95,734.66C1262.95,604.13 1286.49,472.98 1313.64,343.03C1318.74,333.48 1327.99,326.88 1338.73,325.09L1338.74,325.1ZM1365.76,526.04C1425.67,523.77 1546.5,540.59 1565.39,462.29C1579.24,404.9 1534.33,394.36 1488.47,392.21C1463.02,391.02 1423.64,389.94 1398.84,392.21C1395.13,392.55 1392.41,393.02 1390.32,396.48L1365.76,526.05L1365.76,526.04Z" style="fill:rgb(53,29,19);fill-rule:nonzero;"/></g><g transform="matrix(12.6465,0,0,12.6465,30403.3,15137.3)"><circle cx="6084.75" cy="2270.78" r="173.019" style="fill:none;stroke:rgb(53,29,19);stroke-width:31.57px;"/></g><g transform="matrix(12.6465,0,0,12.6465,105968,45163.7)"><text x="0px" y="0px" style="font-family:'HelveticaNeue-Medium', 'Helvetica Neue', sans-serif;font-weight:500;font-size:289.952px;fill:rgb(53,29,19);">R</text></g></g><g transform="matrix(0.585033,0,0,0.468305,-364.177,969.959)"><path d="M6162.25,4336.37L5470.32,4336.37L5288.89,3978.16L5221.74,4068.48L5221.74,4336.37L5070.55,4336.37L5070.55,3535.15L5221.74,3535.15L5221.74,3852.47L5458.54,3535.15L5629.72,3535.15L5388.32,3851.38L5582.8,4228.48L5825.51,4228.48L5825.51,3885.09L5678.41,3885.09L5678.41,3769.77L5975.69,3769.77L5975.69,4228.48L6162.25,4228.48L6162.25,4336.37ZM3244.24,3717.36L3244.24,3767.63L3553.81,3767.63L3553.81,4336.37L3403.63,4336.37L3403.63,3881.89L3244.24,3881.89L3244.24,4336.37L3094.06,4336.37L3094.06,3881.89L2997.19,3881.89L2997.19,3767.63L3094.06,3767.63L3094.06,3728.03C3094.06,3659.64 3108.33,3612.25 3136.86,3585.84C3165.39,3559.43 3218.61,3535.15 3296.51,3535.15L3337.52,3535.15L3337.52,3660.49L3302.66,3660.49C3280.11,3660.49 3264.82,3664.55 3256.79,3672.68C3248.76,3680.8 3244.58,3695.7 3244.24,3717.36ZM4095.85,4293.85C4061,4308.03 4025.46,4318.66 3989.24,4325.74C3953.02,4332.83 3914.75,4336.37 3874.43,4336.37C3778.42,4336.37 3705.04,4310.98 3654.3,4260.19C3603.56,4209.4 3578.19,4136.25 3578.19,4040.74C3578.19,3948.28 3602.62,3875.21 3651.48,3821.55C3700.34,3767.89 3766.97,3741.06 3851.37,3741.06C3936.45,3741.06 4002.48,3765.95 4049.46,3815.73C4096.45,3865.51 4119.94,3935.62 4119.94,4026.06L4119.94,4086.3L3730.92,4086.3C3731.26,4130.85 3744.59,4164.09 3770.9,4186.03C3797.21,4207.96 3836.51,4218.93 3888.78,4218.93C3923.3,4218.93 3957.29,4214.04 3990.78,4204.25C4024.26,4194.47 4059.29,4178.94 4095.85,4157.68L4095.85,4293.85ZM3968.74,3974.94C3968.06,3935.79 3957.89,3906.18 3938.24,3886.1C3918.6,3866.01 3889.64,3855.97 3851.37,3855.97C3816.86,3855.97 3789.35,3866.35 3768.85,3887.11C3748.35,3907.86 3736.22,3937.31 3732.46,3975.44L3968.74,3974.94ZM4152.42,4097.02L4152.42,3654.19L4000.2,3654.19L4000.2,3535.15L4302.59,3535.15L4302.59,4097.02C4302.59,4142.12 4309.6,4174.07 4323.61,4192.86C4337.61,4211.66 4361.36,4221.05 4394.85,4221.05L4514.78,4221.05L4514.78,4328.94L4352.82,4336.37C4281.41,4336.37 4230.15,4317.92 4199.06,4281.02C4167.97,4244.12 4152.42,4182.78 4152.42,4097.02ZM4874.07,3828.96L4874.07,3535.15L5023.73,3535.15L5023.73,4336.37L4874.07,4336.37L4874.07,4236.43C4858.01,4269.57 4837.25,4294.52 4811.8,4311.26C4786.34,4328 4756.36,4336.37 4721.85,4336.37C4656.24,4336.37 4605.33,4310.06 4569.11,4257.44C4532.89,4204.82 4514.78,4130.68 4514.78,4035C4514.78,3937.96 4533.15,3863.47 4569.88,3811.54C4606.61,3759.6 4658.98,3733.63 4726.97,3733.63C4757.72,3733.63 4785.32,3741.58 4809.74,3757.47C4834.18,3773.35 4855.62,3797.19 4874.07,3828.96ZM4664.95,4036.03C4664.95,4091.38 4674.18,4134.78 4692.63,4166.21C4711.08,4197.65 4736.54,4213.37 4769,4213.37C4801.46,4213.37 4827.09,4197.65 4845.88,4166.21C4864.67,4134.78 4874.07,4091.38 4874.07,4036.03C4874.07,3980.67 4864.67,3937.28 4845.88,3905.84C4827.09,3874.41 4801.46,3858.69 4769,3858.69C4736.54,3858.69 4711.08,3874.41 4692.63,3905.84C4674.18,3937.28 4664.95,3980.67 4664.95,4036.03ZM5825.51,3535.15L5975.69,3535.15L5975.69,3665.72L5825.51,3665.72L5825.51,3535.15ZM3403.63,3535.15L3553.81,3535.15L3553.81,3665.72L3403.63,3665.72L3403.63,3535.15ZM6309.31,3535.15L6309.31,3762.33L6505.61,3762.33L6505.61,3877.66L6309.31,3877.66L6309.31,4149.3C6309.31,4174.93 6315.55,4193.29 6328.02,4204.4C6340.49,4215.5 6361.25,4221.05 6390.29,4221.05L6505.61,4221.05L6505.61,4328.94L6379.53,4336.37C6293.42,4336.37 6235.16,4322.62 6204.75,4295.11C6174.34,4267.61 6159.14,4216.61 6159.14,4142.12L6159.14,3877.66L6012.55,3877.66L6012.55,3762.33L6159.14,3762.33L6159.14,3535.15L6309.31,3535.15Z" style="fill:rgb(241,104,35);"/></g></g></g></g></svg>