<?xml version="1.0" encoding="UTF-8" standalone="no"?><!DOCTYPE svg PUBLIC "-//W3C//DTD SVG 1.1//EN" "http://www.w3.org/Graphics/SVG/1.1/DTD/svg11.dtd"><svg width="4110px" height="556px" version="1.1" xmlns="http://www.w3.org/2000/svg" xmlns:xlink="http://www.w3.org/1999/xlink" xml:space="preserve" xmlns:serif="http://www.serif.com/" style="fill-rule:evenodd;clip-rule:evenodd;stroke-linecap:round;stroke-linejoin:round;stroke-miterlimit:1.5;"><g transform="matrix(0.75,0,0,0.75,0,0)"><g id="Artboard3" transform="matrix(2.18585,0,0,0.629382,8174.87,-45.8194)"><rect x="-3739.91" y="72.801" width="2506.56" height="1176.22" style="fill:none;"/><clipPath id="_clip1"><rect x="-3739.91" y="72.801" width="2506.56" height="1176.22"/></clipPath><g clip-path="url(#_clip1)"><g transform="matrix(1.17673,0,0,1,439.464,-2.84217e-14)"><g transform="matrix(0.371489,0,0,1.5182,-2784.8,-699.396)"><path d="M72.235,677.579L72.235,1115.03L155.379,1115.03L155.379,934.291L313.724,934.291L313.724,859.544L155.379,859.544L155.379,758.452L338.085,758.452L338.085,677.579L72.235,677.579Z" style="fill:rgb(54,29,17);fill-rule:nonzero;"/></g><g transform="matrix(0.371489,0,0,1.5182,-2784.8,-699.396)"><path d="M432.35,749.262L432.35,677.579L357.149,677.579L357.149,749.262L432.35,749.262ZM357.149,798.277L357.149,1115.03L432.35,1115.03L432.35,798.277L357.149,798.277Z" style="fill:rgb(54,29,17);fill-rule:nonzero;"/></g><g transform="matrix(0.371489,0,0,1.5182,-2784.8,-699.396)"><path d="M652.656,922.65L530.323,922.65C530.676,916.524 531.823,909.58 533.765,901.819C535.707,894.059 539.061,886.707 543.827,879.763C548.593,872.819 554.948,866.999 562.892,862.302C570.836,857.604 580.809,855.256 592.813,855.256C611.172,855.256 624.853,860.974 633.856,872.411C642.859,883.847 649.125,900.594 652.656,922.65ZM530.323,977.792L727.857,977.792C729.269,953.284 727.503,929.798 722.561,907.333C717.618,884.869 709.586,864.854 698.465,847.291C687.344,829.727 673.133,815.738 655.833,805.322C638.534,794.907 618.233,789.699 594.932,789.699C574.101,789.699 555.125,793.988 538.002,802.565C520.878,811.143 506.138,822.886 493.781,837.794C481.425,852.703 471.892,870.368 465.184,890.791C458.476,911.214 455.122,933.27 455.122,956.96C455.122,981.468 458.388,1003.93 464.919,1024.36C471.451,1044.78 480.718,1062.34 492.722,1077.05C504.726,1091.75 519.378,1103.08 536.678,1111.05C553.977,1119.01 573.395,1123 594.932,1123C626,1123 652.479,1114.83 674.369,1098.49C696.258,1082.15 712.499,1054.99 723.09,1017L656.893,1017C654.421,1026.81 647.713,1036.1 636.768,1044.88C625.824,1053.66 612.761,1058.05 597.579,1058.05C576.396,1058.05 560.156,1051.72 548.858,1039.06C537.56,1026.4 531.382,1005.98 530.323,977.792Z" style="fill:rgb(54,29,17);fill-rule:nonzero;"/></g><g transform="matrix(0.371489,0,0,1.5182,-2784.8,-699.396)"><rect x="751.158" y="677.579" width="75.201" height="437.453" style="fill:rgb(54,29,17);fill-rule:nonzero;"/></g><g transform="matrix(0.371489,0,0,1.5182,-2784.8,-699.396)"><path d="M1056.73,955.735C1056.73,968.806 1055.67,981.468 1053.55,993.721C1051.43,1005.98 1047.9,1016.9 1042.96,1026.5C1038.02,1036.1 1031.39,1043.76 1023.1,1049.47C1014.8,1055.19 1004.48,1058.05 992.118,1058.05C980.467,1058.05 970.493,1055.09 962.196,1049.17C953.9,1043.25 947.015,1035.49 941.543,1025.89C936.07,1016.29 932.098,1005.36 929.627,993.109C927.156,980.855 925.92,968.601 925.92,956.348C925.92,943.277 927.067,930.717 929.362,918.668C931.657,906.619 935.364,895.897 940.483,886.502C945.603,877.108 952.399,869.552 960.872,863.833C969.346,858.115 979.761,855.256 992.118,855.256C1004.48,855.256 1014.71,858.115 1022.83,863.833C1030.95,869.552 1037.57,877.006 1042.69,886.196C1047.81,895.386 1051.43,906.006 1053.55,918.055C1055.67,930.105 1056.73,942.665 1056.73,955.735ZM1057.79,1074.6L1057.79,1115.03L1129.28,1115.03L1129.28,677.579L1054.08,677.579L1054.08,836.875L1053.02,836.875C1044.55,821.354 1032.98,809.611 1018.33,801.646C1003.68,793.681 988.234,789.699 971.994,789.699C951.869,789.699 934.217,794.294 919.035,803.484C903.854,812.675 891.232,824.826 881.17,839.939C871.108,855.052 863.518,872.513 858.398,892.323C853.279,912.133 850.719,932.658 850.719,953.897C850.719,975.954 853.279,997.193 858.398,1017.62C863.518,1038.04 871.108,1056.11 881.17,1071.84C891.232,1087.56 904.031,1100.02 919.565,1109.21C935.099,1118.4 953.105,1123 973.582,1123C991.588,1123 1007.74,1119.22 1022.04,1111.66C1036.34,1104.11 1047.9,1091.75 1056.73,1074.6L1057.79,1074.6Z" style="fill:rgb(54,29,17);fill-rule:nonzero;"/></g><g transform="matrix(0.371489,0,0,1.5182,-2784.8,-699.396)"><path d="M1377.65,875.474L1377.65,752.326L1468.74,752.326C1487.81,752.326 1502.11,757.125 1511.64,766.724C1521.17,776.322 1525.94,791.741 1525.94,812.981C1525.94,835.037 1521.17,850.967 1511.64,860.77C1502.11,870.573 1487.81,875.474 1468.74,875.474L1377.65,875.474ZM1294.51,677.579L1294.51,1115.03L1377.65,1115.03L1377.65,944.094L1460.8,944.094C1481.63,944.094 1496.63,949.404 1505.81,960.024C1514.99,970.644 1520.99,987.39 1523.82,1010.26C1525.94,1027.83 1527.53,1046.21 1528.58,1065.4C1529.64,1084.6 1532.47,1101.14 1537.06,1115.03L1620.2,1115.03C1616.32,1108.9 1613.4,1101.45 1611.46,1092.67C1609.52,1083.89 1608.11,1074.6 1607.23,1064.79C1606.34,1054.99 1605.73,1045.39 1605.37,1036C1605.02,1026.6 1604.67,1018.43 1604.31,1011.49C1603.61,1000.46 1602.28,989.432 1600.34,978.404C1598.4,967.376 1595.31,957.267 1591.07,948.077C1586.84,938.886 1581.37,930.922 1574.66,924.182C1567.95,917.443 1559.48,912.439 1549.24,909.171L1549.24,907.946C1570.42,898.143 1585.69,883.847 1595.05,865.059C1604.4,846.27 1609.08,824.009 1609.08,798.277C1609.08,781.53 1606.52,765.907 1601.4,751.407C1596.28,736.907 1588.87,724.142 1579.16,713.114C1569.45,702.086 1557.8,693.406 1544.21,687.075C1530.61,680.744 1515.34,677.579 1498.4,677.579L1294.51,677.579Z" style="fill:rgb(54,29,17);fill-rule:nonzero;"/></g><g transform="matrix(0.371489,0,0,1.5182,-2784.8,-699.396)"><path d="M1829.92,922.65L1707.58,922.65C1707.93,916.524 1709.08,909.58 1711.03,901.819C1712.97,894.059 1716.32,886.707 1721.09,879.763C1725.85,872.819 1732.21,866.999 1740.15,862.302C1748.1,857.604 1758.07,855.256 1770.07,855.256C1788.43,855.256 1802.11,860.974 1811.12,872.411C1820.12,883.847 1826.38,900.594 1829.92,922.65ZM1707.58,977.792L1905.12,977.792C1906.53,953.284 1904.76,929.798 1899.82,907.333C1894.88,884.869 1886.85,864.854 1875.72,847.291C1864.6,829.727 1850.39,815.738 1833.09,805.322C1815.79,794.907 1795.49,789.699 1772.19,789.699C1751.36,789.699 1732.38,793.988 1715.26,802.565C1698.14,811.143 1683.4,822.886 1671.04,837.794C1658.68,852.703 1649.15,870.368 1642.44,890.791C1635.74,911.214 1632.38,933.27 1632.38,956.96C1632.38,981.468 1635.65,1003.93 1642.18,1024.36C1648.71,1044.78 1657.98,1062.34 1669.98,1077.05C1681.99,1091.75 1696.64,1103.08 1713.94,1111.05C1731.24,1119.01 1750.65,1123 1772.19,1123C1803.26,1123 1829.74,1114.83 1851.63,1098.49C1873.52,1082.15 1889.76,1054.99 1900.35,1017L1834.15,1017C1831.68,1026.81 1824.97,1036.1 1814.03,1044.88C1803.08,1053.66 1790.02,1058.05 1774.84,1058.05C1753.66,1058.05 1737.41,1051.72 1726.12,1039.06C1714.82,1026.4 1708.64,1005.98 1707.58,977.792Z" style="fill:rgb(54,29,17);fill-rule:nonzero;"/></g><g transform="matrix(0.371489,0,0,1.5182,-2784.8,-699.396)"><path d="M1942.72,856.481L1942.72,1115.03L2017.92,1115.03L2017.92,856.481L2069.82,856.481L2069.82,798.277L2017.92,798.277L2017.92,779.284C2017.92,766.213 2020.12,756.921 2024.54,751.407C2028.95,745.893 2036.28,743.135 2046.51,743.135C2056.05,743.135 2065.23,743.748 2074.05,744.973L2074.05,680.03C2067.7,679.621 2061.17,679.111 2054.46,678.498C2047.75,677.885 2041.04,677.579 2034.33,677.579C2003.62,677.579 1980.67,686.565 1965.49,704.537C1950.31,722.509 1942.72,745.586 1942.72,773.769L1942.72,798.277L1897.7,798.277L1897.7,856.481L1942.72,856.481Z" style="fill:rgb(54,29,17);fill-rule:nonzero;"/></g><g transform="matrix(0.371489,0,0,1.5182,-2784.8,-699.396)"><path d="M2263.64,922.65L2141.31,922.65C2141.66,916.524 2142.81,909.58 2144.75,901.819C2146.69,894.059 2150.05,886.707 2154.81,879.763C2159.58,872.819 2165.93,866.999 2173.88,862.302C2181.82,857.604 2191.8,855.256 2203.8,855.256C2222.16,855.256 2235.84,860.974 2244.84,872.411C2253.85,883.847 2260.11,900.594 2263.64,922.65ZM2141.31,977.792L2338.84,977.792C2340.26,953.284 2338.49,929.798 2333.55,907.333C2328.61,884.869 2320.57,864.854 2309.45,847.291C2298.33,829.727 2284.12,815.738 2266.82,805.322C2249.52,794.907 2229.22,789.699 2205.92,789.699C2185.09,789.699 2166.11,793.988 2148.99,802.565C2131.87,811.143 2117.12,822.886 2104.77,837.794C2092.41,852.703 2082.88,870.368 2076.17,890.791C2069.46,911.214 2066.11,933.27 2066.11,956.96C2066.11,981.468 2069.38,1003.93 2075.91,1024.36C2082.44,1044.78 2091.7,1062.34 2103.71,1077.05C2115.71,1091.75 2130.37,1103.08 2147.66,1111.05C2164.96,1119.01 2184.38,1123 2205.92,1123C2236.99,1123 2263.47,1114.83 2285.36,1098.49C2307.24,1082.15 2323.49,1054.99 2334.08,1017L2267.88,1017C2265.41,1026.81 2258.7,1036.1 2247.76,1044.88C2236.81,1053.66 2223.75,1058.05 2208.57,1058.05C2187.38,1058.05 2171.14,1051.72 2159.85,1039.06C2148.55,1026.4 2142.37,1005.98 2141.31,977.792Z" style="fill:rgb(54,29,17);fill-rule:nonzero;"/></g><g transform="matrix(0.371489,0,0,1.5182,-2784.8,-699.396)"><path d="M2360.03,798.277L2360.03,1115.03L2435.23,1115.03L2435.23,972.277C2435.23,957.982 2436.46,944.707 2438.93,932.453C2441.41,920.2 2445.55,909.478 2451.38,900.288C2457.2,891.097 2464.88,883.847 2474.42,878.538C2483.95,873.228 2495.6,870.573 2509.37,870.573C2513.96,870.573 2518.72,870.879 2523.67,871.492C2528.61,872.104 2532.85,872.819 2536.38,873.636L2536.38,792.762C2530.38,790.72 2524.9,789.699 2519.96,789.699C2510.43,789.699 2501.25,791.333 2492.42,794.601C2483.6,797.868 2475.3,802.463 2467.53,808.386C2459.76,814.308 2452.88,821.456 2446.88,829.83C2440.88,838.203 2436.11,847.291 2432.58,857.094L2431.52,857.094L2431.52,798.277L2360.03,798.277Z" style="fill:rgb(54,29,17);fill-rule:nonzero;"/></g><g transform="matrix(0.371489,0,0,1.5182,-2784.8,-699.396)"><path d="M2717.49,922.65L2595.16,922.65C2595.51,916.524 2596.66,909.58 2598.6,901.819C2600.55,894.059 2603.9,886.707 2608.66,879.763C2613.43,872.819 2619.79,866.999 2627.73,862.302C2635.67,857.604 2645.65,855.256 2657.65,855.256C2676.01,855.256 2689.69,860.974 2698.69,872.411C2707.7,883.847 2713.96,900.594 2717.49,922.65ZM2595.16,977.792L2792.7,977.792C2794.11,953.284 2792.34,929.798 2787.4,907.333C2782.46,884.869 2774.42,864.854 2763.3,847.291C2752.18,829.727 2737.97,815.738 2720.67,805.322C2703.37,794.907 2683.07,789.699 2659.77,789.699C2638.94,789.699 2619.96,793.988 2602.84,802.565C2585.72,811.143 2570.98,822.886 2558.62,837.794C2546.26,852.703 2536.73,870.368 2530.02,890.791C2523.31,911.214 2519.96,933.27 2519.96,956.96C2519.96,981.468 2523.23,1003.93 2529.76,1024.36C2536.29,1044.78 2545.56,1062.34 2557.56,1077.05C2569.56,1091.75 2584.22,1103.08 2601.52,1111.05C2618.82,1119.01 2638.23,1123 2659.77,1123C2690.84,1123 2717.32,1114.83 2739.21,1098.49C2761.1,1082.15 2777.34,1054.99 2787.93,1017L2721.73,1017C2719.26,1026.81 2712.55,1036.1 2701.61,1044.88C2690.66,1053.66 2677.6,1058.05 2662.42,1058.05C2641.23,1058.05 2624.99,1051.72 2613.7,1039.06C2602.4,1026.4 2596.22,1005.98 2595.16,977.792Z" style="fill:rgb(54,29,17);fill-rule:nonzero;"/></g><g transform="matrix(0.371489,0,0,1.5182,-2784.8,-699.396)"><path d="M2813.88,798.277L2813.88,1115.03L2889.08,1115.03L2889.08,948.996C2889.08,916.728 2893.67,893.548 2902.85,879.457C2912.03,865.365 2926.86,858.319 2947.33,858.319C2965.34,858.319 2977.87,864.752 2984.93,877.619C2991.99,890.485 2995.53,909.988 2995.53,936.129L2995.53,1115.03L3070.72,1115.03L3070.72,920.2C3070.72,900.594 3069.22,882.724 3066.22,866.59C3063.22,850.456 3058.01,836.773 3050.6,825.541C3043.19,814.308 3033.04,805.527 3020.15,799.196C3007.26,792.865 2990.76,789.699 2970.63,789.699C2954.75,789.699 2939.21,793.886 2924.03,802.259C2908.85,810.632 2896.49,824.009 2886.96,842.389L2885.37,842.389L2885.37,798.277L2813.88,798.277Z" style="fill:rgb(54,29,17);fill-rule:nonzero;"/></g><g transform="matrix(0.371489,0,0,1.5182,-2784.8,-699.396)"><path d="M3291.03,909.784L3364.64,909.784C3363.58,889.362 3359.35,871.696 3351.93,856.787C3344.52,841.879 3334.9,829.421 3323.07,819.414C3311.24,809.407 3297.83,801.953 3282.82,797.051C3267.82,792.15 3252.2,789.699 3235.95,789.699C3213.71,789.699 3193.94,793.988 3176.64,802.565C3159.34,811.143 3144.69,823.09 3132.69,838.407C3120.68,853.724 3111.59,871.9 3105.41,892.935C3099.23,913.971 3096.14,936.742 3096.14,961.249C3096.14,984.939 3099.5,1006.69 3106.21,1026.5C3112.91,1046.31 3122.27,1063.36 3134.28,1077.66C3146.28,1091.95 3160.84,1103.08 3177.97,1111.05C3195.09,1119.01 3213.89,1123 3234.37,1123C3270.73,1123 3300.56,1111.97 3323.87,1089.91C3347.17,1067.86 3361.29,1035.79 3366.23,993.721L3293.68,993.721C3291.21,1013.33 3285.12,1028.95 3275.41,1040.59C3265.7,1052.23 3251.84,1058.05 3233.84,1058.05C3222.18,1058.05 3212.3,1054.99 3204.18,1048.86C3196.06,1042.74 3189.62,1034.87 3184.85,1025.27C3180.08,1015.68 3176.64,1004.95 3174.52,993.109C3172.41,981.263 3171.35,969.622 3171.35,958.186C3171.35,946.341 3172.41,934.393 3174.52,922.344C3176.64,910.295 3180.26,899.267 3185.38,889.259C3190.5,879.252 3197.12,871.083 3205.24,864.752C3213.36,858.421 3223.42,855.256 3235.43,855.256C3267.55,855.256 3286.09,873.432 3291.03,909.784Z" style="fill:rgb(54,29,17);fill-rule:nonzero;"/></g><g transform="matrix(0.371489,0,0,1.5182,-2784.8,-699.396)"><path d="M3569.59,922.65L3447.26,922.65C3447.61,916.524 3448.76,909.58 3450.7,901.819C3452.64,894.059 3456,886.707 3460.76,879.763C3465.53,872.819 3471.88,866.999 3479.83,862.302C3487.77,857.604 3497.74,855.256 3509.75,855.256C3528.11,855.256 3541.79,860.974 3550.79,872.411C3559.79,883.847 3566.06,900.594 3569.59,922.65ZM3447.26,977.792L3644.79,977.792C3646.2,953.284 3644.44,929.798 3639.5,907.333C3634.55,884.869 3626.52,864.854 3615.4,847.291C3604.28,829.727 3590.07,815.738 3572.77,805.322C3555.47,794.907 3535.17,789.699 3511.87,789.699C3491.04,789.699 3472.06,793.988 3454.94,802.565C3437.81,811.143 3423.07,822.886 3410.72,837.794C3398.36,852.703 3388.83,870.368 3382.12,890.791C3375.41,911.214 3372.06,933.27 3372.06,956.96C3372.06,981.468 3375.32,1003.93 3381.85,1024.36C3388.39,1044.78 3397.65,1062.34 3409.66,1077.05C3421.66,1091.75 3436.31,1103.08 3453.61,1111.05C3470.91,1119.01 3490.33,1123 3511.87,1123C3542.93,1123 3569.41,1114.83 3591.3,1098.49C3613.19,1082.15 3629.43,1054.99 3640.03,1017L3573.83,1017C3571.36,1026.81 3564.65,1036.1 3553.7,1044.88C3542.76,1053.66 3529.7,1058.05 3514.51,1058.05C3493.33,1058.05 3477.09,1051.72 3465.79,1039.06C3454.49,1026.4 3448.32,1005.98 3447.26,977.792Z" style="fill:rgb(54,29,17);fill-rule:nonzero;"/></g><g transform="matrix(0.407553,0,0,1.66558,-3553.87,-239.463)"><path d="M1596.68,851.31C1575.84,875.28 1544.49,890.69 1512.89,893.67L139.78,893.6C50.46,883.94 -1.42,783.78 44.81,705.55L309.6,246.96C330.8,212.03 367.78,191.13 408.27,187.48L1775.57,187.55C1865.55,197.86 1917.16,288.17 1876.37,370.96L1610.85,831.17C1606.17,837.89 1602.06,845.12 1596.67,851.31L1596.68,851.31ZM406.32,236.71C387.61,239.24 370.97,248.07 358.32,261.97C264.05,419.97 173,580.31 81.65,740.1C62.86,795.29 97.06,843.87 154.82,844.71C603.45,851.22 1052.59,840.01 1501.27,844.71C1525.86,847.16 1551.57,832.32 1565.54,812.57L1833.35,348.83C1858.11,298.95 1827.9,243.03 1773.26,236.4L406.33,236.7L406.32,236.71Z" style="fill:rgb(241,104,35);fill-rule:nonzero;"/></g><g transform="matrix(0.407553,0,0,1.66558,-3553.87,-239.463)"><path d="M414.49,244.88L1764.02,244.48C1809.82,245.77 1843.34,286.66 1830.49,332.02C1741.02,493.6 1647.11,653.15 1554.09,812.76C1541.44,827.05 1523.86,835.36 1504.75,836.68L150.17,836.68C101.56,833.35 71.5,785.36 91.28,740.44L358.88,276.49C370.92,257.38 392.09,246.25 414.49,244.88ZM409.79,269.26C397.7,271.26 387.48,277.5 380.05,287.2L112.22,752.08C99.93,783.27 122.61,812.55 154.82,813.41L1498.94,813.41C1513.24,812.52 1525.72,808.53 1535.53,797.68L1806.16,329.78C1817.39,300.92 1798.23,270.78 1767.5,268.91L409.78,269.25L409.79,269.26Z" style="fill:rgb(193,157,101);fill-rule:nonzero;"/></g><g transform="matrix(0.094906,0,0,0.387861,-3542.72,72.5646)"><path d="M3885.24,1729.12L4604.35,612.844C4635.02,575.613 4695.95,533.529 4742.89,521.677C4800.56,507.119 5025.24,509.137 5090.42,515.922C5186.49,525.928 5251.97,613.145 5252.92,706.803L4936.34,2358.64C4891.6,2534.45 4744.13,2545.87 4586.62,2533.59C4462.64,2523.93 4394.79,2426.83 4411.03,2307.58C4447.23,2041.59 4534.36,1765.21 4567.04,1499.48C4567.9,1492.44 4574.25,1487.98 4561.88,1489.35L3957.76,2443.54C3841.05,2570.13 3608.64,2572.07 3521.47,2410.39L3266.77,1456.33L3256.29,1449.41C3202.49,1715.36 3159.41,1983.88 3105.01,2249.7C3076.88,2387.03 3055.32,2519.98 2884.24,2533.33C2746.22,2544.11 2618.34,2522.72 2592.87,2365.47C2684.12,1802.06 2805.87,1241.44 2908.16,679.019C2927.78,593.949 3006.97,523.18 3094.1,515.364C3157.4,509.696 3397.92,507.291 3449.62,524.167C3495.06,538.982 3552.26,586.434 3574.93,628.561C3684.26,988.894 3773.37,1356.49 3871.49,1720.55L3885.24,1729.12ZM1947.4,2019.61L1333.92,2021.41L1101.34,2423.1C980.024,2608.48 528.266,2573.36 659.07,2280.36L1645.94,610.182C1732.64,497.972 1901.28,504.972 2030.62,515.149C2105.08,521.032 2171.3,569.944 2205.1,635.303C2337.45,1202.15 2448.24,1775.86 2567.32,2346.4C2551.82,2539 2384.73,2544.88 2229.96,2533.63C2140.98,2527.15 2067.47,2472.48 2034.06,2389.95L1947.4,2019.56L1947.4,2019.61ZM1868.21,1589.36L1798.26,1244.7L1593.63,1589.36L1868.21,1589.36ZM5611.66,516.781C5965.55,525.971 6336.54,479.507 6681.24,572.736C7222.88,719.299 7162.33,1382.42 6750.64,1651.33C6613.65,1740.82 6381.37,1790.98 6218.7,1808.46C6067.67,1824.69 5909.39,1806.14 5757.24,1816.32L5646.23,2374.62C5597.19,2535.99 5444.96,2544.58 5300.5,2533.63C5185.84,2524.91 5108.89,2431.86 5124.05,2316.73L5440.36,670.044C5462.48,596.44 5534.11,526.529 5611.62,516.695L5611.66,516.781ZM5837.41,1374.52C6007.81,1372.55 6177.56,1387.7 6342.72,1338.15C6431.91,1311.39 6505.95,1260.29 6529.05,1164.92C6572.21,986.532 6435.22,966.95 6294.45,959.736C6171.12,953.423 6041.86,964.288 5917.97,960.595L5837.41,1374.52Z" style="fill:rgb(188,152,98);"/></g><g transform="matrix(0.407553,0,0,1.66558,-3553.87,-239.463)"><path d="M922.81,634.22C924.66,636.02 924.83,633.52 925.39,632.71C987.99,541.43 1043.29,442.78 1106.47,352.11C1114.35,340.81 1119.38,332.79 1133.25,327.72C1145.8,323.14 1192.3,323.44 1207.04,324.82C1220.6,326.09 1229.77,334.02 1231.94,347.62C1208.33,479.04 1183.55,610.91 1156.28,741.61C1152.04,748.37 1145.98,754.78 1138.2,757.26C1130.42,759.74 1095.19,759.78 1087.58,757.26C1078.18,754.15 1072.62,744.29 1071.52,734.84L1126.25,444.61C1124.02,445.46 1122.86,447.96 1121.58,449.82C1056.57,544.42 1000.84,648.36 936.07,743.47C918.08,765.07 873.27,766.55 862.3,737.22L783.3,441.13L725.73,738.91C722.41,747.42 712.54,756.88 703.37,758.42C696.66,759.55 675.73,759.53 668.87,758.59C655.42,756.75 646.97,740.78 649.72,728.01L722.01,350.15C725.17,337.03 736.8,326.49 750.28,324.92C765.69,323.13 799.58,323.4 815.31,324.75C834.68,326.42 845.89,339.94 849.24,358.28L922.83,634.22L922.81,634.22ZM1126.84,442.29L1126.84,443.45C1127.59,443.06 1127.59,442.67 1126.84,442.29Z" style="fill:rgb(53,29,19);fill-rule:nonzero;"/></g><g transform="matrix(0.407553,0,0,1.66558,-3553.87,-239.463)"><path d="M324.44,645.1C304.67,674.42 289.94,710.31 270.35,739.3C264.2,748.4 253.23,757.12 241.97,758.6C235.22,759.49 213.05,759.52 206.82,757.9C195.72,755.02 191.5,742.26 194.36,731.91L421.88,344.19C437.33,321.14 471.73,322.56 496.66,324.83C511.29,326.16 523.36,335.76 527.15,350.16L606.25,728.17C609,741.62 600.42,757.18 586.21,758.7C576.27,759.77 543.41,759.79 535.18,756.24C527.05,752.73 520.15,743.97 517.35,735.69C508.18,708.56 505.61,674.36 497.24,646.46L491.79,640.28L330.34,641.12L324.43,645.1L324.44,645.1ZM484.48,576.06L453.1,427.17L367.05,576.06L484.48,576.06Z" style="fill:rgb(53,29,19);fill-rule:nonzero;"/></g><g transform="matrix(0.407553,0,0,1.66558,-3553.87,-239.463)"><path d="M1338.74,325.1C1419.55,326.91 1504.46,316.84 1582.9,339.61C1671.39,365.3 1675.24,468.73 1620.41,530.14C1576.63,579.17 1509.82,586.45 1447.77,592.39C1419.94,595.01 1385.12,588.74 1358.14,592.28C1354.1,592.81 1352.22,595.29 1350.95,599.04C1340.88,642.07 1336.43,688.32 1325.88,731C1322.85,743.26 1315.2,755.4 1301.88,758.17C1294.73,759.65 1264.69,759.66 1257.33,758.41C1246.27,756.53 1238.8,745.23 1237.95,734.66C1262.95,604.13 1286.49,472.98 1313.64,343.03C1318.74,333.48 1327.99,326.88 1338.73,325.09L1338.74,325.1ZM1365.76,526.04C1425.67,523.77 1546.5,540.59 1565.39,462.29C1579.24,404.9 1534.33,394.36 1488.47,392.21C1463.02,391.02 1423.64,389.94 1398.84,392.21C1395.13,392.55 1392.41,393.02 1390.32,396.48L1365.76,526.05L1365.76,526.04Z" style="fill:rgb(53,29,19);fill-rule:nonzero;"/></g><g transform="matrix(0.0691328,0,0,0.282532,-3369.32,364.81)"><circle cx="6084.75" cy="2270.78" r="173.019" style="fill:none;stroke:rgb(53,29,19);stroke-width:31.57px;"/></g><g transform="matrix(0.0691328,0,0,0.282532,-2956.24,1035.62)"><path d="M22.036,-207.026L120.91,-207.026C143.72,-207.026 160.827,-202.097 172.231,-192.238C183.636,-182.38 189.339,-168.655 189.339,-151.065C189.339,-141.207 187.889,-133.04 184.989,-126.564C182.09,-120.088 178.707,-114.869 174.841,-110.907C170.975,-106.944 167.157,-104.093 163.388,-102.353C159.619,-100.613 156.864,-99.454 155.124,-98.874L155.124,-98.294C158.217,-97.907 161.552,-96.941 165.128,-95.394C168.704,-93.848 172.038,-91.383 175.131,-88C178.224,-84.618 180.785,-80.22 182.815,-74.808C184.844,-69.395 185.859,-62.63 185.859,-54.511C185.859,-42.333 186.777,-31.266 188.614,-21.311C190.45,-11.356 193.301,-4.253 197.167,0L158.314,0C155.608,-4.446 154.013,-9.375 153.53,-14.788C153.046,-20.2 152.805,-25.419 152.805,-30.445C152.805,-39.917 152.225,-48.084 151.065,-54.946C149.905,-61.808 147.779,-67.51 144.686,-72.053C141.593,-76.596 137.389,-79.93 132.073,-82.056C126.757,-84.183 119.943,-85.246 111.632,-85.246L58.28,-85.246L58.28,0L22.036,0L22.036,-207.026ZM58.28,-112.791L117.721,-112.791C129.319,-112.791 138.114,-115.546 144.106,-121.055C150.098,-126.564 153.095,-134.828 153.095,-145.846C153.095,-152.418 152.128,-157.782 150.195,-161.938C148.262,-166.094 145.604,-169.332 142.221,-171.652C138.839,-173.971 134.973,-175.518 130.623,-176.291C126.274,-177.064 121.78,-177.451 117.141,-177.451L58.28,-177.451L58.28,-112.791Z" style="fill:rgb(53,29,19);fill-rule:nonzero;"/></g></g></g></g></g></svg>